<mxfile host="app.diagrams.net" agent="Mozilla/5.0 (Windows NT 10.0; Win64; x64) AppleWebKit/537.36 (KHTML, like Gecko) Chrome/140.0.0.0 Safari/537.36 Edg/140.0.0.0" version="28.2.2">
  <diagram name="Страница — 1" id="2Ok_GX2nHUYrrFlJRTVM">
    <mxGraphModel dx="846" dy="478" grid="1" gridSize="10" guides="1" tooltips="1" connect="1" arrows="1" fold="1" page="1" pageScale="1" pageWidth="827" pageHeight="1169" math="0" shadow="0">
      <root>
        <mxCell id="0" />
        <mxCell id="1" parent="0" />
        <mxCell id="RjexQt98Hq2rrJu0Z_Hp-1" value="" style="rounded=1;whiteSpace=wrap;html=1;" vertex="1" parent="1">
          <mxGeometry x="354" y="20" width="120" height="60" as="geometry" />
        </mxCell>
        <mxCell id="RjexQt98Hq2rrJu0Z_Hp-2" value="Начало" style="text;strokeColor=none;align=center;fillColor=none;html=1;verticalAlign=middle;whiteSpace=wrap;rounded=0;" vertex="1" parent="1">
          <mxGeometry x="384" y="35" width="60" height="30" as="geometry" />
        </mxCell>
        <mxCell id="RjexQt98Hq2rrJu0Z_Hp-3" value="" style="shape=parallelogram;perimeter=parallelogramPerimeter;whiteSpace=wrap;html=1;fixedSize=1;" vertex="1" parent="1">
          <mxGeometry x="350" y="110" width="120" height="60" as="geometry" />
        </mxCell>
        <mxCell id="RjexQt98Hq2rrJu0Z_Hp-6" value="int x, A" style="text;strokeColor=none;align=center;fillColor=none;html=1;verticalAlign=middle;whiteSpace=wrap;rounded=0;" vertex="1" parent="1">
          <mxGeometry x="380" y="125" width="60" height="30" as="geometry" />
        </mxCell>
        <mxCell id="RjexQt98Hq2rrJu0Z_Hp-7" value="" style="rounded=0;whiteSpace=wrap;html=1;" vertex="1" parent="1">
          <mxGeometry x="295" y="210" width="220" height="60" as="geometry" />
        </mxCell>
        <mxCell id="RjexQt98Hq2rrJu0Z_Hp-8" value="res = x+1,5*(A-38)*(x/38)" style="text;strokeColor=none;align=center;fillColor=none;html=1;verticalAlign=middle;whiteSpace=wrap;rounded=0;" vertex="1" parent="1">
          <mxGeometry x="325" y="225" width="150" height="30" as="geometry" />
        </mxCell>
        <mxCell id="RjexQt98Hq2rrJu0Z_Hp-9" value="" style="shape=parallelogram;perimeter=parallelogramPerimeter;whiteSpace=wrap;html=1;fixedSize=1;" vertex="1" parent="1">
          <mxGeometry x="350" y="300" width="120" height="60" as="geometry" />
        </mxCell>
        <mxCell id="RjexQt98Hq2rrJu0Z_Hp-11" value="" style="rounded=1;whiteSpace=wrap;html=1;" vertex="1" parent="1">
          <mxGeometry x="345" y="390" width="130" height="60" as="geometry" />
        </mxCell>
        <mxCell id="RjexQt98Hq2rrJu0Z_Hp-13" value="конец" style="text;strokeColor=none;align=center;fillColor=none;html=1;verticalAlign=middle;whiteSpace=wrap;rounded=0;" vertex="1" parent="1">
          <mxGeometry x="384" y="405" width="60" height="30" as="geometry" />
        </mxCell>
        <mxCell id="RjexQt98Hq2rrJu0Z_Hp-14" value="rеs" style="text;strokeColor=none;align=center;fillColor=none;html=1;verticalAlign=middle;whiteSpace=wrap;rounded=0;" vertex="1" parent="1">
          <mxGeometry x="380" y="315" width="60" height="30" as="geometry" />
        </mxCell>
        <mxCell id="RjexQt98Hq2rrJu0Z_Hp-16" value="" style="endArrow=classic;html=1;rounded=0;exitX=0.56;exitY=0.966;exitDx=0;exitDy=0;entryX=0.564;entryY=0.039;entryDx=0;entryDy=0;entryPerimeter=0;exitPerimeter=0;" edge="1" parent="1" source="RjexQt98Hq2rrJu0Z_Hp-1" target="RjexQt98Hq2rrJu0Z_Hp-3">
          <mxGeometry width="50" height="50" relative="1" as="geometry">
            <mxPoint x="390" y="280" as="sourcePoint" />
            <mxPoint x="440" y="230" as="targetPoint" />
          </mxGeometry>
        </mxCell>
        <mxCell id="RjexQt98Hq2rrJu0Z_Hp-17" value="" style="endArrow=classic;html=1;rounded=0;exitX=0.5;exitY=1;exitDx=0;exitDy=0;entryX=0.535;entryY=-0.049;entryDx=0;entryDy=0;entryPerimeter=0;" edge="1" parent="1" source="RjexQt98Hq2rrJu0Z_Hp-3" target="RjexQt98Hq2rrJu0Z_Hp-7">
          <mxGeometry width="50" height="50" relative="1" as="geometry">
            <mxPoint x="390" y="280" as="sourcePoint" />
            <mxPoint x="440" y="230" as="targetPoint" />
          </mxGeometry>
        </mxCell>
        <mxCell id="RjexQt98Hq2rrJu0Z_Hp-18" value="" style="endArrow=classic;html=1;rounded=0;entryX=0.5;entryY=0;entryDx=0;entryDy=0;exitX=0.532;exitY=1.015;exitDx=0;exitDy=0;exitPerimeter=0;" edge="1" parent="1" source="RjexQt98Hq2rrJu0Z_Hp-7" target="RjexQt98Hq2rrJu0Z_Hp-9">
          <mxGeometry width="50" height="50" relative="1" as="geometry">
            <mxPoint x="390" y="280" as="sourcePoint" />
            <mxPoint x="440" y="230" as="targetPoint" />
          </mxGeometry>
        </mxCell>
        <mxCell id="RjexQt98Hq2rrJu0Z_Hp-19" value="" style="endArrow=classic;html=1;rounded=0;exitX=0.5;exitY=1;exitDx=0;exitDy=0;entryX=0.5;entryY=0;entryDx=0;entryDy=0;" edge="1" parent="1" source="RjexQt98Hq2rrJu0Z_Hp-9" target="RjexQt98Hq2rrJu0Z_Hp-11">
          <mxGeometry width="50" height="50" relative="1" as="geometry">
            <mxPoint x="390" y="280" as="sourcePoint" />
            <mxPoint x="440" y="230" as="targetPoint" />
          </mxGeometry>
        </mxCell>
      </root>
    </mxGraphModel>
  </diagram>
</mxfile>
